<svg xmlns="http://www.w3.org/2000/svg" viewBox="0 0 750 500"><g id="freepik--background-complete--inject-2"><path d="M433.83,221.86s0-.09,0-.24l0-.66c0-.6,0-1.45,0-2.53,0-2.22,0-5.42-.08-9.44l.15.15-48.65.09c.11-.11-.25.25.25-.24h0v6.52c0,2.14,0,4.26,0,6.33l-.24-.25,34.67.11,10.23.07,2.77,0h.72a1.33,1.33,0,0,1,.26,0h-.22l-.7,0-2.71,0L420,222l-34.84.11h-.24v-.24c0-2.07,0-4.19,0-6.33V209h0l.25-.25,48.65.09H434V209c0,4.06-.06,7.29-.08,9.53,0,1.07,0,1.9,0,2.5,0,.26,0,.47,0,.63A.85.85,0,0,1,433.83,221.86Z" style="fill:#e0e0e0"></path><path d="M527.41,87.24a1,1,0,0,1,0-.23c0-.17,0-.39,0-.66,0-.61,0-1.45,0-2.54,0-2.22-.05-5.41-.08-9.44l.15.15-48.65.1c.11-.11-.25.25.24-.25h0V87.24l-.25-.24,34.67.11,10.24.07,2.77,0,.72,0h.26a.94.94,0,0,1-.23,0h-.69l-2.72,0-10.18.07-34.84.11h-.24V74.39h0c.49-.49.13-.14.25-.25l48.65.1h.15v.15c0,4.07-.07,7.29-.09,9.53,0,1.07,0,1.91,0,2.5,0,.26,0,.47,0,.64A1.23,1.23,0,0,1,527.41,87.24Z" style="fill:#e0e0e0"></path><path d="M707.83,280a1,1,0,0,1,0-.23v-.66c0-.6,0-1.45,0-2.53,0-2.22,0-5.42-.08-9.45l.15.15-48.65.1.25-.25h0V280l-.24-.24,34.67.11,10.23.07,2.77,0,.72,0h.26s-.07,0-.23,0l-.69,0-2.71,0-10.18.07-34.84.11h-.25V267.18h0l.25-.24,48.65.09H708v.15c0,4.07-.06,7.29-.08,9.54,0,1.07,0,1.9,0,2.5l0,.63A1.23,1.23,0,0,1,707.83,280Z" style="fill:#e0e0e0"></path><path d="M714.43,267.17a.68.68,0,0,1,0-.24c0-.19,0-.41,0-.68,0-.64,0-1.5,0-2.58,0-2.26-.05-5.45-.09-9.37l.18.18-29.23.07c-.23.22.3-.3.24-.25h0v6.62c0,2.16,0,4.24,0,6.24l-.24-.23,20.92.11,6.09.07,1.64,0,.59,0a3.43,3.43,0,0,1-.53,0l-1.6,0-6,.07-21.07.11H685v-.24c0-2,0-4.08,0-6.24v-6.62h0c-.06.06.47-.47.25-.24l29.23.06h.18v.17c0,4-.07,7.19-.09,9.47,0,1.07,0,1.92,0,2.55A8.46,8.46,0,0,1,714.43,267.17Z" style="fill:#e0e0e0"></path><path d="M254.55,424.62l-11,4.73.74-65.25c.34-7.81-3.25-11.14-5.2-13.36-17.71-20.14-44.12-5.53-44.35,14.88l-.66,58.31-10.71-.12,1.06-61c.08-6.87,5.42-18.79,10.81-23.06,29.8-23.61,60.29.78,60,26.58Z" style="fill:#f5f5f5"></path><path d="M254.55,424.62v-1.17c0-.77,0-1.9,0-3.38,0-3,.06-7.35.1-13s.11-12.5.18-20.49q.06-6,.12-12.77c0-4.52.41-9.33-.52-14.27a34.64,34.64,0,0,0-6.13-14.31c-.41-.55-.8-1.11-1.23-1.65s-.92-1-1.38-1.55a35,35,0,0,0-3-2.95c-.51-.49-1.11-.88-1.67-1.33s-1.11-.91-1.74-1.27a33.7,33.7,0,0,0-3.78-2.18,36.21,36.21,0,0,0-8.42-3l-2.26-.37-1.13-.19-1.15-.07-2.32-.15c-.78,0-1.56.05-2.34.08a35.07,35.07,0,0,0-18.08,6,35.45,35.45,0,0,0-12.73,15.44,37.36,37.36,0,0,0-2.62,10.11c-.3,3.5-.22,7.11-.29,10.72-.16,14.47-.33,29.45-.5,44.8q0,3.07-.07,6.12l-.25-.26,10.71.12-.25.25q.19-17.4.39-34,.09-8.26.19-16.29,0-4,.09-7.95a27.23,27.23,0,0,1,1.3-7.74,25.21,25.21,0,0,1,8.86-12.19,16.13,16.13,0,0,1,1.53-1.07l1.6-1a25.15,25.15,0,0,1,3.37-1.48,25.44,25.44,0,0,1,3.51-1c.59-.13,1.19-.18,1.78-.28l.89-.12.9,0a25.27,25.27,0,0,1,7,.59,26.72,26.72,0,0,1,6.42,2.45,25.5,25.5,0,0,1,12,14.81,26.2,26.2,0,0,1,1,6c0,.5,0,1,.05,1.49s0,1,0,1.47c0,1,0,1.94,0,2.9,0,1.91,0,3.79-.07,5.63-.1,7.36-.18,14.12-.26,20.22-.17,12.19-.3,21.73-.39,28.07l-.07-.07,8.08.13,2,0,.65,0H252l-8.12-.05h-.07v-.07c0-6.34.14-15.88.25-28.07.06-6.1.13-12.87.2-20.23,0-1.84,0-3.72.06-5.63,0-1,0-1.92,0-2.9,0-.48,0-1,0-1.46l-.06-1.47a23.54,23.54,0,0,0-3.53-11.57,24.9,24.9,0,0,0-9.27-8.91,26.37,26.37,0,0,0-6.31-2.4,24.89,24.89,0,0,0-6.91-.56l-.88,0-.87.13c-.59.09-1.18.14-1.76.27a26.58,26.58,0,0,0-6.75,2.43l-1.57.94a15.51,15.51,0,0,0-1.5,1,24.7,24.7,0,0,0-8.69,12,26.53,26.53,0,0,0-1.26,7.6q0,3.94-.09,7.95-.09,8-.18,16.29c-.12,11-.25,22.37-.38,34v.25h-.25l-10.72-.12h-.25v-.25q0-3,.07-6.12c.18-15.34.35-30.32.52-44.8.07-3.62,0-7.19.29-10.77a38,38,0,0,1,2.67-10.24A38.77,38.77,0,0,1,192,343a38.29,38.29,0,0,1,7.51-6.79,35.48,35.48,0,0,1,18.32-6.08c.79,0,1.58-.09,2.37-.07l2.69.16,1.48.17,2.24.37,1,.22a34.93,34.93,0,0,1,8,2.94,32.86,32.86,0,0,1,3.83,2.21c.63.37,1.17.87,1.75,1.29s1.17.85,1.7,1.34a35.66,35.66,0,0,1,3,3l1.4,1.57c.43.55.82,1.12,1.23,1.68a34.9,34.9,0,0,1,6.17,14.47c.93,5,.46,9.84.49,14.36s-.12,8.82-.17,12.82c-.11,8-.21,14.88-.29,20.51s-.14,10-.19,12.94c0,1.46,0,2.59-.06,3.35S254.55,424.62,254.55,424.62Z" style="fill:#e0e0e0"></path><path d="M170.67,386.29h97a3.74,3.74,0,0,1,3.74,3.74V465a3.4,3.4,0,0,1-3.4,3.4h-97.3a0,0,0,0,1,0,0V386.29A0,0,0,0,1,170.67,386.29Z" transform="translate(4.86 -2.48) rotate(0.65)" style="fill:#e0e0e0"></path><path d="M170.14,386.2h85.3a4.06,4.06,0,0,1,4.06,4.06v73a5,5,0,0,1-5,5H170.28a4.2,4.2,0,0,1-4.2-4.2V390.26A4.06,4.06,0,0,1,170.14,386.2Z" transform="matrix(1, 0.01, -0.01, 1, 4.86, -2.39)" style="fill:#ebebeb"></path><path d="M225.85,420.15a11.45,11.45,0,0,0-11.68-11.58,11.58,11.58,0,0,0-11.23,11.23,11.41,11.41,0,0,0,8.2,11.16l-7.65,15.72,19.75.59L217.4,431A11.42,11.42,0,0,0,225.85,420.15Z" style="fill:#e0e0e0"></path><path d="M259.18,461.09c-.14,0,0-14.29.25-31.91s.61-31.92.75-31.92,0,14.29-.25,31.92S259.32,461.1,259.18,461.09Z" style="fill:#fafafa"></path><path d="M238.34,389c0,.14-12.57.28-28.08.31s-28.09-.06-28.09-.2,12.57-.27,28.09-.3S238.34,388.84,238.34,389Z" style="fill:#fff"></path><path d="M202.5,426.06a2.58,2.58,0,0,1-.47-.72,11.69,11.69,0,0,1-.86-2.18,12.85,12.85,0,0,1,4.7-13.84,11.36,11.36,0,0,1,2-1.21,2.5,2.5,0,0,1,.8-.28c0,.08-1.09.55-2.59,1.77a13.18,13.18,0,0,0-4.57,13.47C202,425,202.58,426,202.5,426.06Z" style="fill:#fff"></path><path d="M207,431.54c-.07.12-.74-.17-1.5-.64s-1.31-.95-1.24-1.07.75.17,1.51.64S207,431.42,207,431.54Z" style="fill:#fff"></path><path d="M216.52,333.17a16.2,16.2,0,0,1-1.93.25,33.51,33.51,0,0,0-5.16,1.11,30.76,30.76,0,0,0-21.81,24.74,30.67,30.67,0,0,0-.45,5.26c0,1.24,0,1.94,0,1.94a1.56,1.56,0,0,1-.08-.5c0-.33-.1-.81-.11-1.44a27.79,27.79,0,0,1,.3-5.32,30.34,30.34,0,0,1,22.06-25,27.54,27.54,0,0,1,5.24-1c.62-.07,1.11-.06,1.44-.07A2.52,2.52,0,0,1,216.52,333.17Z" style="fill:#fff"></path><path d="M186.64,375.32a9,9,0,0,1-.18-3,8.89,8.89,0,0,1,.31-3,17.55,17.55,0,0,1-.13,6Z" style="fill:#fff"></path><rect x="199.62" y="96.77" width="48.65" height="12.87" style="fill:#f5f5f5"></rect><path d="M227.7,123.2s0-.08,0-.23l0-.66c0-.61,0-1.46,0-2.54,0-2.22,0-5.41-.08-9.44l.15.15-48.65.1c.11-.11-.25.24.25-.25h0v6.52q0,3.22,0,6.33l-.24-.24,34.67.11,10.23.07,2.77,0h.72a1.33,1.33,0,0,1,.26,0l-.22,0h-.7l-2.71,0-10.18.07-34.84.11h-.24v-.24q0-3.11,0-6.33v-6.52h0l.25-.25,48.65.1h.15v.15c0,4.06-.06,7.29-.08,9.53,0,1.07,0,1.9,0,2.5,0,.26,0,.47,0,.63S227.71,123.2,227.7,123.2Z" style="fill:#e0e0e0"></path><rect x="652.01" y="63.17" width="48.65" height="12.87" style="fill:#f5f5f5"></rect><path d="M680.09,89.6a1.17,1.17,0,0,1,0-.23v-.66c0-.61,0-1.45,0-2.54,0-2.22,0-5.41-.08-9.44l.15.15-48.65.1c.11-.11-.25.24.25-.25h0v1.63c0,.55,0,1.1,0,1.64V89.6l-.24-.24,34.67.11,10.23.07,2.77,0h.72l.26,0-.23,0h-.69l-2.71,0-10.18.07-34.84.11h-.25V76.75h0l.25-.25,48.65.1h.15v.15c0,4.06-.06,7.29-.08,9.53,0,1.07,0,1.9,0,2.5,0,.26,0,.47,0,.64S680.1,89.6,680.09,89.6Z" style="fill:#e0e0e0"></path><rect x="374.56" y="319.03" width="48.65" height="12.87" style="fill:#f5f5f5"></rect><path d="M402.64,345.46a1.35,1.35,0,0,1,0-.24v-.66c0-.6,0-1.45,0-2.53,0-2.22-.05-5.41-.08-9.44l.15.15-48.65.1c.11-.11-.25.24.24-.25h0v12.85l-.24-.24,34.67.11,10.23.07,2.77,0h.72l.26,0h-.23l-.69,0-2.71,0-10.18.07L354,345.7h-.25V332.61h0l.25-.25,48.65.1h.15v.15c0,4.06-.06,7.29-.08,9.53,0,1.07,0,1.9,0,2.5,0,.26,0,.47,0,.63A1.66,1.66,0,0,1,402.64,345.46Z" style="fill:#e0e0e0"></path><path d="M104.26,76.61a1,1,0,0,1,0-.23c0-.17,0-.39,0-.66,0-.61,0-1.45,0-2.54,0-2.22,0-5.41-.08-9.44l.15.15L55.61,64c.11-.11-.25.25.24-.25h0V76.61l-.24-.24,34.67.11,10.23.07,2.77,0,.72,0h.26a.94.94,0,0,1-.23,0h-.69l-2.72,0-10.17.07-34.84.11h-.25V63.76h0l.25-.25,48.65.1h.15v.15c0,4.07-.06,7.29-.08,9.53,0,1.07,0,1.91,0,2.5,0,.26,0,.47,0,.64A1.23,1.23,0,0,1,104.26,76.61Z" style="fill:#e0e0e0"></path><path d="M589.41,447.73s0-.08,0-.23l0-.66c0-.61,0-1.45,0-2.54,0-2.22,0-5.41-.08-9.44l.15.15-48.65.1.25-.25h0v6.52q0,3.23,0,6.33l-.24-.24,34.67.11,10.23.07,2.77,0h.73l.25,0s-.07,0-.22,0h-.7l-2.71,0-10.18.07-34.84.11h-.24v-.24q0-3.11,0-6.33v-6.52h0l.25-.25,48.65.1h.15v.15c0,4.06-.06,7.29-.08,9.53,0,1.07,0,1.9,0,2.5,0,.26,0,.47,0,.64S589.42,447.74,589.41,447.73Z" style="fill:#e0e0e0"></path><path d="M394.36,58.13s0-.09,0-.24l0-.66c0-.6,0-1.45,0-2.53,0-2.22,0-5.42-.08-9.44l.15.15-48.65.09.25-.24h0V51.8q0,3.23,0,6.33l-.24-.24,34.67.11,10.23.06,2.77,0h.73a1.27,1.27,0,0,1,.25,0h-.22l-.7,0-2.71,0-10.18.07-34.84.11h-.24v-.24c0-2.07,0-4.18,0-6.33V45.28h0l.25-.25,48.65.1h.15v.15c0,4.06-.06,7.29-.08,9.53,0,1.07,0,1.9,0,2.5v.63A.85.85,0,0,1,394.36,58.13Z" style="fill:#e0e0e0"></path><path d="M401,45.26a1.41,1.41,0,0,1,0-.25c0-.18,0-.41,0-.68,0-.63,0-1.49,0-2.58,0-2.26-.06-5.44-.1-9.36l.18.17-29.23.07.24-.24h0V39c0,2.15,0,4.24,0,6.24l-.23-.24,20.91.11,6.09.07,1.64,0,.59,0a3.28,3.28,0,0,1-.53,0l-1.6,0-6,.06-21.07.11h-.24v-.23c0-2,0-4.09,0-6.24V32.41h0c-.06,0,.47-.47.25-.25l29.23.07h.18v.18c0,4-.08,7.18-.1,9.47,0,1.07,0,1.91,0,2.54S401,45.27,401,45.26Z" style="fill:#e0e0e0"></path><path d="M87.36,365a2.07,2.07,0,0,1,0-.23c0-.17,0-.39,0-.66,0-.61,0-1.45,0-2.53,0-2.22,0-5.42-.08-9.45l.15.15-48.65.1.25-.25h0v6.53q0,3.22,0,6.33l-.24-.24,34.67.11,10.23.07,2.77,0,.73,0h.25s-.07,0-.22,0l-.7,0-2.71,0-10.18.07-34.84.11h-.24V365c0-2.07,0-4.18,0-6.33v-6.53h0c.5-.49.14-.13.25-.24l48.65.09h.15v.15c0,4.07-.06,7.29-.08,9.54,0,1.07,0,1.9,0,2.5v.63C87.37,365,87.37,365,87.36,365Z" style="fill:#e0e0e0"></path><path d="M94,352.15a1.22,1.22,0,0,1,0-.24c0-.19,0-.41,0-.68,0-.64,0-1.5,0-2.58,0-2.26-.06-5.45-.1-9.37l.18.18-29.23.07c-.22.22.3-.3.24-.25h0v6.62q0,3.24,0,6.24l-.23-.23,20.91.11,6.09.07,1.64,0,.59,0a3.28,3.28,0,0,1-.53,0l-1.6,0-6,.07-21.07.11h-.24v-.24c0-2,0-4.08,0-6.24v-6.62h0l.25-.25L94,339.1h.18v.18c0,4-.08,7.19-.1,9.47,0,1.07,0,1.92,0,2.55S94,352.17,94,352.15Z" style="fill:#e0e0e0"></path><path d="M240.56,259.19a1,1,0,0,1,0-.23v-.66c0-.61,0-1.45,0-2.53,0-2.23-.05-5.42-.08-9.45l.15.15-48.65.1c.11-.11-.25.25.24-.25h0v12.85l-.24-.24,34.67.11,10.23.07,2.77,0,.72,0h.26l-.23,0h-.69l-2.72,0-10.17.06-34.84.11h-.25v-13.1h0l.25-.25,48.65.1h.15v.15c0,4.07-.06,7.29-.08,9.54,0,1.06,0,1.9,0,2.49l0,.64A1.23,1.23,0,0,1,240.56,259.19Z" style="fill:#e0e0e0"></path><path d="M247.16,246.32a.68.68,0,0,1,0-.24c0-.19,0-.41,0-.69l-.05-2.58c0-2.25,0-5.44-.09-9.36l.18.18-29.24.07.25-.25h0v6.62c0,2.15,0,4.24,0,6.24l-.24-.23,20.91.11,6.1.06,1.64,0,.59,0a3.68,3.68,0,0,1-.54,0l-1.59,0-6,.07-21.07.11h-.23v-.24c0-2,0-4.09,0-6.24v-6.62h0c0,.05.48-.47.25-.25l29.24.07h.18v.18c0,4-.07,7.19-.09,9.47,0,1.07,0,1.92-.05,2.54S247.17,246.33,247.16,246.32Z" style="fill:#e0e0e0"></path></g><g id="freepik--Floor--inject-2"><path d="M694.36,468.89c0,.14-142.55.26-318.34.26S57.64,469,57.64,468.89s142.52-.26,318.38-.26S694.36,468.75,694.36,468.89Z" style="fill:#263238"></path></g><g id="freepik--Tab--inject-2"><rect x="456.37" y="126.9" width="227.01" height="291.34" style="fill:#fff"></rect><path d="M683.38,418.23c0-2.05-.1-118.42-.24-291.33l.24.23-227,0h0l.26-.26c0,108.07,0,208.41,0,291.33l-.22-.21,227,.21-227,.22h-.21v-.22c0-82.92,0-183.26-.05-291.33v-.26h.29l227,0h.23v.24C683.47,299.81,683.38,416.18,683.38,418.23Z" style="fill:#263238"></path><rect x="479.05" y="238.05" width="182.35" height="31.5" rx="1.45" style="fill:#ebebeb"></rect><rect x="479.23" y="281.31" width="182.35" height="31.5" rx="1.45" style="fill:#ebebeb"></rect><path d="M499,252c0,1.58-1.15,2.54-3,2.54h-1.8v2.2h-1v-7.28h2.84C497.82,249.44,499,250.4,499,252Zm-1,0c0-1-.7-1.64-2-1.64h-1.77v3.27h1.77C497.23,253.61,497.93,253,497.93,252Z" style="fill:#263238"></path><path d="M504.67,253.39v3.33h-.95V256a2.05,2.05,0,0,1-1.81.8c-1.25,0-2-.67-2-1.63s.57-1.61,2.22-1.61h1.58v-.2c0-.84-.49-1.33-1.48-1.33a2.82,2.82,0,0,0-1.75.59l-.41-.75a3.7,3.7,0,0,1,2.27-.7C503.81,251.16,504.67,251.88,504.67,253.39Zm-1,1.65v-.77h-1.54c-1,0-1.27.38-1.27.85s.46.89,1.22.89A1.61,1.61,0,0,0,503.67,255Z" style="fill:#263238"></path><path d="M505.82,256.14l.41-.79a3.58,3.58,0,0,0,1.94.57c.93,0,1.31-.28,1.31-.75,0-1.24-3.48-.16-3.48-2.36,0-1,.88-1.65,2.3-1.65a3.93,3.93,0,0,1,2,.5l-.42.79a2.83,2.83,0,0,0-1.6-.44c-.87,0-1.3.32-1.3.76,0,1.3,3.5.24,3.5,2.38,0,1-.91,1.64-2.38,1.64A4,4,0,0,1,505.82,256.14Z" style="fill:#263238"></path><path d="M511,256.14l.42-.79a3.52,3.52,0,0,0,1.93.57c.93,0,1.31-.28,1.31-.75,0-1.24-3.48-.16-3.48-2.36,0-1,.88-1.65,2.3-1.65a4,4,0,0,1,2,.5l-.43.79a2.82,2.82,0,0,0-1.59-.44c-.88,0-1.31.32-1.31.76,0,1.3,3.5.24,3.5,2.38,0,1-.91,1.64-2.38,1.64A4,4,0,0,1,511,256.14Z" style="fill:#263238"></path><path d="M525.18,251.21l-2.06,5.51h-1l-1.59-4.18L519,256.72h-1l-2-5.51h.95l1.6,4.39,1.66-4.39H521l1.63,4.41,1.64-4.41Z" style="fill:#263238"></path><path d="M525.52,254a2.87,2.87,0,1,1,2.87,2.82A2.74,2.74,0,0,1,525.52,254Zm4.72,0a1.86,1.86,0,1,0-1.85,1.94A1.81,1.81,0,0,0,530.24,254Z" style="fill:#263238"></path><path d="M535.6,251.16v1h-.23a1.65,1.65,0,0,0-1.74,1.87v2.74h-1v-5.51h1v.92A2.11,2.11,0,0,1,535.6,251.16Z" style="fill:#263238"></path><path d="M542,249v7.72h-1v-.87a2.36,2.36,0,0,1-2,.94,2.82,2.82,0,0,1,0-5.63A2.36,2.36,0,0,1,541,252v-3Zm-1,5a1.86,1.86,0,1,0-1.86,1.94A1.82,1.82,0,0,0,541,254Z" style="fill:#263238"></path><path d="M492.5,298.38a3.68,3.68,0,0,1,3.86-3.73,3.58,3.58,0,0,1,2.76,1.14l-.67.65a2.71,2.71,0,0,0-2.05-.86,2.8,2.8,0,1,0,0,5.6,2.69,2.69,0,0,0,2.05-.88l.67.66a3.59,3.59,0,0,1-2.77,1.14A3.68,3.68,0,0,1,492.5,298.38Z" style="fill:#263238"></path><path d="M499.72,299.26a2.87,2.87,0,1,1,2.88,2.82A2.75,2.75,0,0,1,499.72,299.26Zm4.73,0a1.86,1.86,0,1,0-3.72,0,1.86,1.86,0,1,0,3.72,0Z" style="fill:#263238"></path><path d="M512.07,298.85V302h-1V299c0-1.08-.54-1.61-1.48-1.61a1.63,1.63,0,0,0-1.75,1.83V302h-1v-5.51h1v.83a2.36,2.36,0,0,1,2-.89A2.14,2.14,0,0,1,512.07,298.85Z" style="fill:#263238"></path><path d="M515.89,294.24a1.83,1.83,0,0,1,1.12.32l-.3.76a1.28,1.28,0,0,0-.77-.26c-.59,0-.89.33-.89,1v.48h1.6v.82h-1.58V302h-1v-4.69h-.94v-.82h.94V296A1.65,1.65,0,0,1,515.89,294.24Zm2.36.56a.66.66,0,0,1,.68-.66.65.65,0,1,1-.68.66Zm.18,1.71h1V302h-1Z" style="fill:#263238"></path><path d="M524.29,296.45v1h-.23a1.64,1.64,0,0,0-1.73,1.86V302h-1v-5.51h.95v.92A2.12,2.12,0,0,1,524.29,296.45Z" style="fill:#263238"></path><path d="M534.68,298.85V302h-1V299c0-1.08-.52-1.61-1.43-1.61s-1.65.63-1.65,1.83V302h-1V299c0-1.08-.52-1.61-1.43-1.61s-1.65.63-1.65,1.83V302h-1v-5.51h1v.82a2.21,2.21,0,0,1,1.9-.88,2,2,0,0,1,1.91,1,2.51,2.51,0,0,1,2.13-1A2.12,2.12,0,0,1,534.68,298.85Z" style="fill:#263238"></path><path d="M545.34,297.28c0,1.58-1.15,2.53-3,2.53h-1.8V302h-1v-7.28h2.84C544.19,294.74,545.34,295.69,545.34,297.28Zm-1.05,0c0-1-.69-1.64-2-1.64H540.5v3.27h1.77C543.6,298.91,544.29,298.32,544.29,297.28Z" style="fill:#263238"></path><path d="M551,298.69V302h-.94v-.73a2.06,2.06,0,0,1-1.81.79c-1.25,0-2-.66-2-1.62s.57-1.61,2.21-1.61H550v-.2c0-.84-.48-1.33-1.47-1.33a2.82,2.82,0,0,0-1.75.59l-.42-.75a3.69,3.69,0,0,1,2.28-.71C550.18,296.45,551,297.18,551,298.69Zm-1,1.64v-.77h-1.54c-1,0-1.26.39-1.26.86s.45.89,1.21.89A1.58,1.58,0,0,0,550,300.33Z" style="fill:#263238"></path><path d="M552.19,301.44l.41-.79a3.58,3.58,0,0,0,1.94.57c.92,0,1.31-.28,1.31-.75,0-1.24-3.49-.17-3.49-2.36,0-1,.89-1.66,2.3-1.66a4,4,0,0,1,2,.5l-.43.79a2.89,2.89,0,0,0-1.59-.43c-.87,0-1.3.32-1.3.76,0,1.3,3.5.24,3.5,2.38,0,1-.92,1.63-2.39,1.63A4,4,0,0,1,552.19,301.44Z" style="fill:#263238"></path><path d="M557.4,301.44l.41-.79a3.58,3.58,0,0,0,1.94.57c.92,0,1.31-.28,1.31-.75,0-1.24-3.49-.17-3.49-2.36,0-1,.89-1.66,2.3-1.66a4,4,0,0,1,2,.5l-.43.79a2.89,2.89,0,0,0-1.59-.43c-.87,0-1.3.32-1.3.76,0,1.3,3.5.24,3.5,2.38,0,1-.92,1.63-2.39,1.63A4,4,0,0,1,557.4,301.44Z" style="fill:#263238"></path><path d="M571.55,296.51,569.49,302h-1l-1.59-4.18L565.32,302h-1l-2-5.51h.94l1.61,4.39,1.66-4.39h.84l1.64,4.41,1.64-4.41Z" style="fill:#263238"></path><path d="M571.89,299.26a2.87,2.87,0,1,1,2.87,2.82A2.74,2.74,0,0,1,571.89,299.26Zm4.72,0a1.86,1.86,0,1,0-3.72,0,1.86,1.86,0,1,0,3.72,0Z" style="fill:#263238"></path><path d="M582,296.45v1h-.23a1.64,1.64,0,0,0-1.74,1.86V302h-1v-5.51h1v.92A2.11,2.11,0,0,1,582,296.45Z" style="fill:#263238"></path><path d="M588.34,294.3V302h-1v-.87a2.32,2.32,0,0,1-2,.93,2.82,2.82,0,0,1,0-5.63,2.31,2.31,0,0,1,1.92.89v-3Zm-1,5a1.86,1.86,0,1,0-1.85,1.95A1.81,1.81,0,0,0,587.35,299.26Z" style="fill:#263238"></path><rect x="478.17" y="330.09" width="182.34" height="31.5" rx="1.45" style="fill:#407BFF"></rect><path d="M546.79,346.08a3.76,3.76,0,0,1,4-3.78,3.84,3.84,0,0,1,3.13,1.37l-1.31,1.19a2.14,2.14,0,0,0-1.72-.86,2.09,2.09,0,0,0,0,4.17,2.17,2.17,0,0,0,1.72-.86l1.31,1.19a3.87,3.87,0,0,1-3.13,1.37A3.76,3.76,0,0,1,546.79,346.08Z" style="fill:#fff"></path><path d="M560.75,346.5v3.23h-2v-2.91c0-.81-.36-1.15-.93-1.15s-1.12.39-1.12,1.33v2.73h-2V342h2v2.61a2.41,2.41,0,0,1,1.69-.62A2.21,2.21,0,0,1,560.75,346.5Z" style="fill:#fff"></path><path d="M567.28,346.59v3.14h-1.84V349a1.72,1.72,0,0,1-1.67.82c-1.35,0-2.1-.76-2.1-1.74s.76-1.68,2.51-1.68h1.12c0-.58-.42-.9-1.2-.9a2.66,2.66,0,0,0-1.53.49l-.66-1.34a4.69,4.69,0,0,1,2.49-.66C566.23,344,567.28,344.8,567.28,346.59Zm-2,1.33v-.49h-.85c-.64,0-.87.22-.87.57s.28.57.74.57A1,1,0,0,0,565.3,347.92Z" style="fill:#fff"></path><path d="M574.53,346.5v3.23h-2v-2.91c0-.81-.35-1.15-.92-1.15s-1.13.39-1.13,1.33v2.73h-2v-5.64h1.88v.61a2.42,2.42,0,0,1,1.79-.71A2.21,2.21,0,0,1,574.53,346.5Z" style="fill:#fff"></path><path d="M581.92,344.09v4.61c0,2.13-1.21,3.14-3.31,3.14a5,5,0,0,1-2.8-.74l.72-1.38a3.3,3.3,0,0,0,1.9.6c1.06,0,1.51-.48,1.51-1.36v-.19a2.09,2.09,0,0,1-1.67.66,2.72,2.72,0,1,1,0-5.44,2.06,2.06,0,0,1,1.77.78v-.68Zm-2,2.62a1.23,1.23,0,1,0-1.23,1.15A1.14,1.14,0,0,0,580,346.71Z" style="fill:#fff"></path><path d="M588.92,347.41h-4.1a1.31,1.31,0,0,0,1.39.9,1.83,1.83,0,0,0,1.3-.49l1,1.08a3,3,0,0,1-2.41.92c-2,0-3.31-1.24-3.31-2.93a2.92,2.92,0,0,1,3.11-2.9,2.82,2.82,0,0,1,3,2.93C589,347.06,588.93,347.25,588.92,347.41Zm-4.13-1.05h2.31a1.17,1.17,0,0,0-2.31,0Z" style="fill:#fff"></path><path d="M552.38,193.38h-1.67v2.87h-3.06V185.44h4.94c2.95,0,4.81,1.53,4.81,4a3.59,3.59,0,0,1-2.12,3.41l2.33,3.4h-3.27Zm0-5.53h-1.7V191h1.7c1.26,0,1.9-.58,1.9-1.57S553.67,187.85,552.41,187.85Z" style="fill:#263238"></path><path d="M567.45,192.81h-6.08a1.92,1.92,0,0,0,2,1.34,2.66,2.66,0,0,0,1.93-.73l1.54,1.61a4.5,4.5,0,0,1-3.56,1.36c-3,0-4.91-1.84-4.91-4.34a4.32,4.32,0,0,1,4.6-4.31,4.2,4.2,0,0,1,4.48,4.34C567.5,192.3,567.47,192.57,567.45,192.81Zm-6.13-1.55h3.43a1.74,1.74,0,0,0-3.43,0Z" style="fill:#263238"></path><path d="M568.19,195.52l.88-2a6,6,0,0,0,2.92.77c1,0,1.31-.22,1.31-.57,0-1.13-4.94.15-4.94-3.2,0-1.57,1.45-2.78,4.08-2.78a7.37,7.37,0,0,1,3.3.71l-.88,2a4.9,4.9,0,0,0-2.41-.61c-1,0-1.34.27-1.34.58,0,1.16,4.93-.09,4.93,3.23,0,1.54-1.42,2.75-4.14,2.75A7.7,7.7,0,0,1,568.19,195.52Z" style="fill:#263238"></path><path d="M585.81,192.81h-6.08a1.93,1.93,0,0,0,2,1.34,2.66,2.66,0,0,0,1.93-.73l1.55,1.61a4.53,4.53,0,0,1-3.57,1.36c-3,0-4.91-1.84-4.91-4.34a4.32,4.32,0,0,1,4.6-4.31,4.2,4.2,0,0,1,4.48,4.34C585.86,192.3,585.83,192.57,585.81,192.81Zm-6.13-1.55h3.43a1.64,1.64,0,0,0-1.71-1.43A1.67,1.67,0,0,0,579.68,191.26Z" style="fill:#263238"></path><path d="M593,195.91a3.94,3.94,0,0,1-2,.48c-2.15,0-3.4-1-3.4-3.2v-2.81h-1.22v-2.19h1.22V186h2.93v2.18h1.92v2.19h-1.92v2.78a.85.85,0,0,0,.88,1,1.61,1.61,0,0,0,.9-.26Z" style="fill:#263238"></path><path d="M515.9,209.71v3.88h-3.06v-3.93l-4.12-6.88h3.22l2.57,4.29,2.56-4.29h3Z" style="fill:#263238"></path><path d="M519.22,209.39c0-2.52,2-4.31,4.72-4.31s4.73,1.79,4.73,4.31-2,4.34-4.73,4.34S519.22,211.92,519.22,209.39Zm6.48,0a1.77,1.77,0,1,0-3.52,0,1.77,1.77,0,1,0,3.52,0Z" style="fill:#263238"></path><path d="M538.83,205.22v8.37H536v-.9a3.3,3.3,0,0,1-2.49,1c-2,0-3.55-1.18-3.55-3.83v-4.68h2.93v4.2c0,1.3.51,1.8,1.39,1.8s1.58-.57,1.58-2v-4Z" style="fill:#263238"></path><path d="M546.32,205.08v2.64a5.57,5.57,0,0,0-.66-.05,1.83,1.83,0,0,0-2,2.07v3.85h-2.93v-8.37h2.79v1A3.42,3.42,0,0,1,546.32,205.08Z" style="fill:#263238"></path><path d="M561.94,206.78c0,2.45-1.86,4-4.81,4h-1.88v2.83h-3.06V202.78h4.94C560.08,202.78,561.94,204.31,561.94,206.78Zm-3.09,0c0-1-.64-1.59-1.9-1.59h-1.7v3.16H557C558.21,208.35,558.85,207.77,558.85,206.78Z" style="fill:#263238"></path><path d="M571.05,208.94v4.65h-2.73v-1.08a2.56,2.56,0,0,1-2.48,1.22c-2,0-3.12-1.13-3.12-2.58s1.13-2.5,3.73-2.5h1.66c0-.85-.61-1.33-1.77-1.33a3.93,3.93,0,0,0-2.27.72l-1-2a7.07,7.07,0,0,1,3.69-1C569.49,205.08,571.05,206.28,571.05,208.94Zm-2.94,2v-.73h-1.26c-.94,0-1.28.34-1.28.85s.4.85,1.09.85A1.44,1.44,0,0,0,568.11,210.9Z" style="fill:#263238"></path><path d="M572.24,212.86l.88-2a5.86,5.86,0,0,0,2.92.78c1,0,1.31-.22,1.31-.57,0-1.13-4.94.15-4.94-3.2,0-1.58,1.45-2.78,4.07-2.78a7.38,7.38,0,0,1,3.31.71l-.88,2a4.94,4.94,0,0,0-2.41-.62c-1,0-1.34.28-1.34.59,0,1.16,4.92-.09,4.92,3.23,0,1.54-1.42,2.75-4.14,2.75A7.65,7.65,0,0,1,572.24,212.86Z" style="fill:#263238"></path><path d="M580.69,212.86l.88-2a5.85,5.85,0,0,0,2.91.78c1,0,1.32-.22,1.32-.57,0-1.13-4.94.15-4.94-3.2,0-1.58,1.45-2.78,4.07-2.78a7.41,7.41,0,0,1,3.31.71l-.88,2a5,5,0,0,0-2.41-.62c-1,0-1.35.28-1.35.59,0,1.16,4.93-.09,4.93,3.23,0,1.54-1.42,2.75-4.14,2.75A7.63,7.63,0,0,1,580.69,212.86Z" style="fill:#263238"></path><path d="M603.51,205.22l-3,8.37h-2.84L596.11,209l-1.63,4.56h-2.84l-3-8.37h2.78l1.71,5.06,1.77-5.06h2.51l1.73,5.11,1.77-5.11Z" style="fill:#263238"></path><path d="M603.65,209.39c0-2.52,2-4.31,4.73-4.31s4.72,1.79,4.72,4.31-2,4.34-4.72,4.34S603.65,211.92,603.65,209.39Zm6.49,0a1.77,1.77,0,1,0-1.76,2A1.76,1.76,0,0,0,610.14,209.39Z" style="fill:#263238"></path><path d="M620.07,205.08v2.64a5.58,5.58,0,0,0-.67-.05,1.82,1.82,0,0,0-2,2.07v3.85h-2.94v-8.37h2.8v1A3.4,3.4,0,0,1,620.07,205.08Z" style="fill:#263238"></path><path d="M630.09,202.13v11.46H627.3v-.84a3,3,0,0,1-2.46,1,4.33,4.33,0,0,1,0-8.65,3.09,3.09,0,0,1,2.32.86v-3.81Zm-2.89,7.26a1.77,1.77,0,1,0-1.74,2A1.75,1.75,0,0,0,627.2,209.39Z" style="fill:#263238"></path></g><g id="freepik--Padlock--inject-2"><path d="M600.17,137.83l-7.9-1.64,10-48.11a10.55,10.55,0,0,0-1.56-7.24c-12.59-17.43-33.07-10.35-36.21,4.71l-9,43-7.9-1.65,10.09-48.42a17.23,17.23,0,0,1,8.93-11.79c25.44-13.11,46.79,7.27,42.44,28.16Z" style="fill:#e0e0e0"></path><path d="M600.17,137.83s.05-.3.17-.86.28-1.41.5-2.5l2-9.57c.86-4.15,1.9-9.22,3.11-15.11l2-9.42c.62-3.34,1.65-6.84,1.69-10.62a26.08,26.08,0,0,0-2.46-11.46c-.22-.46-.43-.94-.66-1.4l-.8-1.35a26.81,26.81,0,0,0-1.79-2.61c-.32-.44-.7-.82-1.05-1.23s-.69-.83-1.1-1.19a24.44,24.44,0,0,0-2.48-2.16,26.8,26.8,0,0,0-5.78-3.45l-1.61-.6L591,64l-.84-.22-1.69-.44c-.58-.13-1.16-.19-1.74-.29a26.44,26.44,0,0,0-14.24,1.82,26.55,26.55,0,0,0-15,16.65c-.73,2.55-1.2,5.22-1.77,7.88-2.22,10.67-4.53,21.72-6.88,33-.32,1.51-.63,3-.94,4.51l-.15-.23,7.9,1.65-.22.15c1.78-8.55,3.53-16.92,5.22-25q1.27-6.09,2.51-12l1.22-5.86a21,21,0,0,1,2.08-5.54,19.11,19.11,0,0,1,8.32-7.72c.43-.19.84-.42,1.29-.57l1.32-.46a19.82,19.82,0,0,1,2.7-.61,19.46,19.46,0,0,1,2.74-.22c.45,0,.91,0,1.36.06l.67,0,.67.11a18.79,18.79,0,0,1,5.1,1.45A20.13,20.13,0,0,1,595,74.86a19.1,19.1,0,0,1,5.63,8.07,18.11,18.11,0,0,1,.93,9.2l-.18,1.11c-.07.36-.15.72-.22,1.08l-.45,2.14c-.3,1.41-.59,2.79-.87,4.15-1.14,5.42-2.19,10.41-3.13,14.9-1.9,9-3.38,16-4.36,20.69l-.05-.07,6,1.27,1.46.32.48.11-.47-.09-1.45-.28-6-1.22h0v-.06l4.26-20.7c.93-4.5,2-9.49,3.09-14.92.28-1.35.57-2.74.86-4.15.14-.7.29-1.42.44-2.13.08-.36.15-.72.23-1.09s.11-.73.17-1.09a17.84,17.84,0,0,0-.93-9.06,18.78,18.78,0,0,0-5.56-7.93,19.85,19.85,0,0,0-4.32-2.69,18.84,18.84,0,0,0-5-1.42l-.66-.1-.67,0c-.44,0-.88-.06-1.33,0a19.21,19.21,0,0,0-5.34.82l-1.3.46a11.79,11.79,0,0,0-1.26.56,18.66,18.66,0,0,0-8.16,7.59,20.07,20.07,0,0,0-2,5.43q-.6,2.91-1.22,5.86-1.23,5.91-2.5,12l-5.21,25,0,.19-.19,0-7.9-1.65-.18,0,0-.19c.31-1.49.62-3,.94-4.51,2.36-11.31,4.66-22.36,6.89-33,.57-2.67,1-5.32,1.78-7.92a28.83,28.83,0,0,1,3.45-7.18,27,27,0,0,1,11.82-9.68,26.79,26.79,0,0,1,14.42-1.83c.59.1,1.18.17,1.76.29l2,.52,1.07.34,1.6.6.74.31a26.88,26.88,0,0,1,5.49,3.33,27.59,27.59,0,0,1,2.5,2.19A15.91,15.91,0,0,1,603,71.5c.35.42.74.8,1.05,1.24a27.1,27.1,0,0,1,1.82,2.65l.8,1.36c.24.47.44,1,.67,1.42a26.33,26.33,0,0,1,2.45,11.59c0,3.82-1.09,7.33-1.72,10.68s-1.37,6.5-2,9.45c-1.24,5.89-2.32,11-3.19,15.11s-1.56,7.35-2,9.53l-.53,2.47C600.24,137.56,600.17,137.83,600.17,137.83Z" style="fill:#263238"></path><path d="M537.08,104.06h72.09a3.74,3.74,0,0,1,3.74,3.74v54.66a3.4,3.4,0,0,1-3.4,3.4H537.08a0,0,0,0,1,0,0v-61.8a0,0,0,0,1,0,0Z" transform="translate(39.63 -114.48) rotate(11.77)" style="fill:#455a64"></path><g style="opacity:0.30000000000000004"><path d="M537.12,104.12h71.71a4.12,4.12,0,0,1,4.12,4.12v53.9a3.78,3.78,0,0,1-3.78,3.78H537.12a0,0,0,0,1,0,0v-61.8A0,0,0,0,1,537.12,104.12Z" transform="translate(39.64 -114.49) rotate(11.77)"></path></g><path d="M537.82,102.8H600a4.06,4.06,0,0,1,4.06,4.06v52.77a5,5,0,0,1-5,5H538a4.2,4.2,0,0,1-4.2-4.2V106.86A4.06,4.06,0,0,1,537.82,102.8Z" transform="translate(39.25 -113.27) rotate(11.77)" style="fill:#455a64"></path><g style="opacity:0.30000000000000004"><path d="M579.61,130.36a8.63,8.63,0,0,0-6.94-10.26,8.74,8.74,0,0,0-9.94,6.67,8.61,8.61,0,0,0,4.45,9.44l-7.95,10.51,14.51,3.3-2-12.85A8.6,8.6,0,0,0,579.61,130.36Z"></path></g><path d="M598.29,165.45c-.1,0,2.06-10.56,4.82-23.54s5.09-23.5,5.19-23.48S606.24,129,603.48,142,598.39,165.47,598.29,165.45Z" style="fill:#263238"></path><path d="M593.37,109.14c0,.1-9.33-1.63-20.79-3.86s-20.75-4.12-20.73-4.22,9.33,1.62,20.8,3.85S593.39,109,593.37,109.14Z" style="fill:#fff"></path><path d="M561.5,131.33s-.12-.2-.24-.6a7.77,7.77,0,0,1-.32-1.73,9.79,9.79,0,0,1,1.25-5.63,9.89,9.89,0,0,1,4.23-3.92,8.87,8.87,0,0,1,1.66-.6,2,2,0,0,1,.64-.09c0,.07-.89.25-2.18.93a10,10,0,0,0-5.33,9.29C561.26,130.44,561.57,131.31,561.5,131.33Z" style="fill:#fff"></path><path d="M564,136c-.07.08-.53-.23-1-.69s-.83-.89-.76-1,.53.24,1,.69S564.07,136,564,136Z" style="fill:#fff"></path><path d="M585.35,64.74s-.52,0-1.46-.1a25.05,25.05,0,0,0-4,.07A23.2,23.2,0,0,0,560.2,79.82a25,25,0,0,0-1.09,3.82c-.18.92-.26,1.44-.29,1.44a1.6,1.6,0,0,1,0-.38c0-.25,0-.62.13-1.09a21.76,21.76,0,0,1,1-3.88,22.89,22.89,0,0,1,19.94-15.29,21,21,0,0,1,4,.06c.47,0,.83.12,1.08.15A1.37,1.37,0,0,1,585.35,64.74Z" style="fill:#fff"></path><path d="M557.15,91.54a6.83,6.83,0,0,1,.3-2.24,6.81,6.81,0,0,1,.66-2.15,6.63,6.63,0,0,1-.29,2.23A6.68,6.68,0,0,1,557.15,91.54Z" style="fill:#fff"></path></g><g id="freepik--Characters--inject-2"><path d="M60.42,413.6,42.45,438l30.26,22.52c2-3-9.37-20.48-9.37-20.48L75.5,424.88Z" style="fill:#455a64"></path><path d="M55,431.78a1.53,1.53,0,0,0-1.9.77,1.49,1.49,0,0,0,.75,1.9,1.62,1.62,0,0,0,2-.83,1.54,1.54,0,0,0-1-1.89" style="fill:#fff"></path><path d="M42.41,438.06l1.91-2.62L72.59,458.2s.9,1.6,0,2.43Z" style="fill:#263238"></path><path d="M64,440.26c-.11.15-.9-.33-2-.4s-1.93.27-2,.11.77-.85,2.07-.75S64.08,440.15,64,440.26Z" style="fill:#263238"></path><path d="M66.15,443.94c-.08.17-.9-.06-1.87.19s-1.6.81-1.75.69.39-1,1.6-1.31S66.25,443.8,66.15,443.94Z" style="fill:#263238"></path><path d="M65.12,449.08c-.16-.07.19-1,1.17-1.49s1.91-.33,1.88-.16-.78.28-1.57.73S65.28,449.17,65.12,449.08Z" style="fill:#263238"></path><path d="M66.34,436.5c-.17.09-.69-.62-1.57-1.18s-1.72-.79-1.71-1,1-.25,2.06.43S66.5,436.44,66.34,436.5Z" style="fill:#263238"></path><path d="M133.58,311.46c.54,3.06,1.4,29.09,1.95,42.82s-.82,20.48-2.39,23.56S72.36,424.55,67.85,435l-15-12.09s22-39.49,31.38-46.67,27.43-13.77,27.43-13.77l-5.13-75.19,24.59-1.34Z" style="fill:#263238"></path><path d="M78.55,437.73,78.29,468l37.71.52c-.17-3.6-19.58-11.11-19.58-11.11l1-19.41Z" style="fill:#455a64"></path><path d="M84.78,455.66a1.54,1.54,0,0,0-1.09,1.74,1.49,1.49,0,0,0,1.72,1.1,1.63,1.63,0,0,0,1.14-1.85,1.53,1.53,0,0,0-1.91-.94" style="fill:#fff"></path><path d="M78.28,468.11l0-3.25,36.25,1.88s1.66.77,1.45,1.95Z" style="fill:#263238"></path><path d="M97,457.27c0,.19-.93.26-1.84.84s-1.41,1.34-1.58,1.27.12-1.14,1.24-1.82S97.08,457.1,97,457.27Z" style="fill:#263238"></path><path d="M101,459c0,.18-.77.48-1.4,1.25s-.83,1.6-1,1.58-.29-1.05.52-2S101,458.79,101,459Z" style="fill:#263238"></path><path d="M103.15,463.73c-.17,0-.41-.89.07-1.89s1.36-1.39,1.43-1.24-.46.69-.85,1.52S103.33,463.71,103.15,463.73Z" style="fill:#263238"></path><path d="M96.76,452.82c-.08.17-.92-.1-2,0s-1.86.37-2,.21.69-.8,1.92-.85S96.85,452.68,96.76,452.82Z" style="fill:#263238"></path><path d="M136.3,282.83c0,1.77,2.87,46.58-11.78,79,0,0-5.07,10.14-6,14.57s-19.88,77.91-19.88,77.91l-21.9-.8s-3.5-36.81,0-58.12,10-18.81,10-32.57-3.27-42.29-3.27-42.29-4.78-7.79-6.41-22.9c-1.33-12.27,4.45-25.42,4.45-25.42l5.71-10.11,48.31-2.53Z" style="fill:#263238"></path><path d="M136.3,282.83s0-.52,0-1.53-.06-2.51-.1-4.48c-.09-3.95-.24-9.77-.42-17.29v-.11h-.12l-48.31,2.46h-.1l-.06.09c-1.77,3.14-3.72,6.57-5.72,10.11h0A64.71,64.71,0,0,0,78,283.18a49.43,49.43,0,0,0-1.21,12.19,75.39,75.39,0,0,0,2,12.69,51.57,51.57,0,0,0,4.63,12.57l0-.1c.83,7.46,1.6,15.19,2.25,23.15.32,4,.6,8,.8,12.11.1,2,.18,4.1.19,6.17,0,1,0,2.07-.06,3.1a28.78,28.78,0,0,1-.38,3.08A20.24,20.24,0,0,1,84.07,374c-1,1.87-2,3.72-3,5.67a53.33,53.33,0,0,0-3.93,12.4c-1.74,8.6-2.09,17.54-2.19,26.55,0,11.89.56,23.57,1.54,34.86l0,.24h.23l21.9.8h.21l.05-.21c6.35-24.61,12.27-47.61,17.49-68.29l1.89-7.65c.33-1.27.54-2.53.93-3.73s.83-2.39,1.29-3.55c.94-2.32,2-4.57,3-6.76l.78-1.63a16.11,16.11,0,0,0,.74-1.64c.45-1.11.9-2.2,1.35-3.29a132.68,132.68,0,0,0,6.91-24.93,216.82,216.82,0,0,0,3.3-36.74c.06-8.62-.29-13.3-.29-13.3s0,.29,0,.86,0,1.44.06,2.56c.06,2.25.1,5.57,0,9.88A222.45,222.45,0,0,1,133,332.81a132.6,132.6,0,0,1-7,24.84l-1.34,3.27c-.22.56-.47,1.09-.74,1.63s-.53,1.09-.79,1.64c-1,2.19-2.06,4.44-3,6.77-.47,1.17-.92,2.36-1.31,3.58s-.62,2.51-.94,3.75c-.63,2.52-1.26,5.06-1.91,7.65-5.31,20.66-11.22,43.66-17.55,68.27l.26-.19-21.9-.81.26.24c-1-11.27-1.58-22.94-1.54-34.81.1-9,.45-17.9,2.18-26.44a53.51,53.51,0,0,1,3.89-12.29c.9-1.93,2-3.76,3-5.66a20.91,20.91,0,0,0,2.12-6,27.93,27.93,0,0,0,.39-3.15c0-1,.1-2.1.06-3.13,0-2.08-.09-4.15-.19-6.2-.2-4.1-.49-8.14-.82-12.12q-1-12-2.27-23.17v0l0-.06A51,51,0,0,1,79.21,308a75.55,75.55,0,0,1-2-12.6,49.11,49.11,0,0,1,1.18-12.08,65.65,65.65,0,0,1,3.39-11v0l5.7-10.12-.16.1,48.31-2.61-.13-.11c.24,7.51.42,13.33.54,17.28.07,2,.12,3.46.16,4.48S136.3,282.83,136.3,282.83Z" style="fill:#455a64"></path><path d="M120.59,191.07s-13-2.3-11.79,14.43c.76,10,3.7,27.16,5.33,38.11.56,3.79,1.8,10.57,6.81,14.55L156.84,283l11.33-13.55-32.06-30.53-5-30.2Z" style="fill:#455a64"></path><path d="M122.12,130.77a16.46,16.46,0,0,1,6.1,13.92c-.2,2.56-.91,5.47.76,7.42s4.87,1.88,6.45,3.86c1.85,2.34.3,5.82,1,8.73a5.92,5.92,0,0,0,6.29,4.39,23.09,23.09,0,0,1-11.44,5L128,170c1.22,1.44.89,3.73-.28,5.2A9.7,9.7,0,0,1,123,178a29.29,29.29,0,0,1-25.65-4.17" style="fill:#263238"></path><path d="M74.09,153.34c.64-2,1.72-3.77,2.15-5.78.92-4.33-1.19-9.21.91-13.11,1.5-2.77,4.68-4.13,7.7-5.06s6.24-1.71,8.49-3.92c1.64-1.62,2.58-3.86,4.22-5.48,2.34-2.32,5.8-3.11,9.08-3.31a19.72,19.72,0,0,1,9.91,1.61,10.82,10.82,0,0,1,6.1,7.63c.26,1.62.06,3.33.58,4.9.56,1.72,1.91,3.06,2.75,4.67a8.68,8.68,0,0,1-2.17,10.4l-23.18,29.94c-4.87,1.84-16.67-.38-20.43-4S72.48,158.29,74.09,153.34Z" style="fill:#263238"></path><path d="M123.2,142.09c-1-6.8-6.13-14.83-12.88-13.59l-20.84,7c-2,.38-.58,3.73-.38,5.8l4.53,47s-2.82,2-3.82,1.62a.29.29,0,0,0-.34.43C92,194,103.79,209.87,116,205c2.72-1.09-.29-9.66,0-12.83l-.36-8.11c-.27-4.14-.4-5.84-.4-5.8s8.62-2.12,9.55-13.65C125.26,158.9,124.26,149.64,123.2,142.09Z" style="fill:#ffbf9d"></path><path d="M121.75,152.55a1.47,1.47,0,0,1-1.3,1.58,1.4,1.4,0,0,1-1.61-1.2,1.47,1.47,0,0,1,1.3-1.58A1.4,1.4,0,0,1,121.75,152.55Z" style="fill:#263238"></path><path d="M107.55,153.44a1.46,1.46,0,0,1-1.29,1.58,1.41,1.41,0,0,1-1.61-1.2,1.47,1.47,0,0,1,1.3-1.58A1.39,1.39,0,0,1,107.55,153.44Z" style="fill:#263238"></path><path d="M122.27,147.73c-.16.27-1.52-.59-3.22-.34s-2.79,1.41-3,1.2,0-.56.49-1.09a3.89,3.89,0,0,1,5-.69C122.1,147.2,122.35,147.61,122.27,147.73Z" style="fill:#263238"></path><path d="M107,149c-.2.25-1.53-.72-3.36-.64s-3.13,1.11-3.34.88.09-.54.66-1a4.38,4.38,0,0,1,2.65-1,4.34,4.34,0,0,1,2.7.81C106.88,148.46,107.09,148.88,107,149Z" style="fill:#263238"></path><path d="M112.73,159.77a9.94,9.94,0,0,1,2.52-.66c.39-.07.77-.18.81-.46a2,2,0,0,0-.36-1.17c-.45-.94-.92-1.93-1.42-3-2-4.23-3.45-7.71-3.28-7.79s1.92,3.28,3.9,7.5c.48,1.05.94,2,1.37,3a2.3,2.3,0,0,1,.33,1.56,1,1,0,0,1-.61.64,2.77,2.77,0,0,1-.67.14A11,11,0,0,1,112.73,159.77Z" style="fill:#263238"></path><path d="M115.24,178.28a29.06,29.06,0,0,1-15.56-2.9s4.45,7.7,15.76,5.76Z" style="fill:#ff9a6c"></path><path d="M107.94,164.35a2.58,2.58,0,0,1,.8-1,2,2,0,0,1,1.36-.13,3.14,3.14,0,0,1,1.78.9,1.91,1.91,0,0,1,.45,1.88h0c-.18.66-1.16,1-1.83,1.14a3,3,0,0,1-2-.41,1.75,1.75,0,0,1-1-1.3A2.15,2.15,0,0,1,107.94,164.35Z" style="fill:#ff9a6c"></path><path d="M108.26,162.14c.25,0,.39,1.67,1.94,2.77s3.35.77,3.38,1-.37.36-1.14.44a4.24,4.24,0,0,1-2.82-.75,3.67,3.67,0,0,1-1.52-2.33C108,162.58,108.14,162.14,108.26,162.14Z" style="fill:#263238"></path><path d="M106.86,142.85c-.13.43-1.71.35-3.54.72s-3.28,1-3.55.61c-.12-.17.1-.59.67-1.05a6.22,6.22,0,0,1,5.4-1C106.54,142.33,106.91,142.64,106.86,142.85Z" style="fill:#263238"></path><path d="M121.3,142c-.29.38-1.55.11-3,.21s-2.73.45-3.05.1c-.14-.17,0-.55.55-.93a4.68,4.68,0,0,1,2.43-.77,4.55,4.55,0,0,1,2.48.53C121.23,141.44,121.43,141.8,121.3,142Z" style="fill:#263238"></path><path d="M84.87,137.14c1-1.62,2.94-2.45,4.74-3.14a104.89,104.89,0,0,1,24.14-6.15c1,1.69.08,4-1.47,5.23s-3.55,1.72-5.4,2.41-3.76,1.77-4.53,3.6-.12,4.24-.84,6.22c-1.23,3.42-6,4.52-7.19,7.93-.92,2.59.58,5.34,1,8.06a9.8,9.8,0,0,1-9.62,11.15q-.84-14.69-1.69-29.36C83.84,141.05,83.76,138.85,84.87,137.14Z" style="fill:#263238"></path><path d="M65.15,161.87c1.55-1.39,3.49-2.59,4.1-4.57.9-2.89-1.42-6.28.08-8.91,1.36-2.4,5.37-2.27,6.64-4.72,1-1.92-.15-3.61.22-5.29s2.77-3.15,4.47-2.95L94,154.8c1.24,6.5,2.49,10,1.1,13.76a30.36,30.36,0,0,0-2.07,6.32c-.3,2.2.27,4.69,2.06,6-8,.63-15.48-3.55-22.4-7.6L65.4,169a5.23,5.23,0,0,1-2-1.68C62.31,165.54,63.61,163.25,65.15,161.87Z" style="fill:#263238"></path><path d="M72.52,171.31a3.79,3.79,0,0,0,.86.17,7.49,7.49,0,0,0,2.49-.18,7.69,7.69,0,0,0,3.47-1.87,7.57,7.57,0,0,0,2.28-4.67,7.73,7.73,0,0,0-.26-3.07,12.67,12.67,0,0,0-1.48-3,11.51,11.51,0,0,1-1.53-3.08,3.94,3.94,0,0,1,.43-3.39c.72-1,2.07-1.21,3.33-1.71a3.63,3.63,0,0,0,1.7-1.27,3.59,3.59,0,0,0,.55-2.09,22.81,22.81,0,0,0-.91-4.16,4.4,4.4,0,0,1,0-2,2.87,2.87,0,0,1,1.15-1.63,8.08,8.08,0,0,1,4-1.08,8.59,8.59,0,0,0,4.12-1.21A7.71,7.71,0,0,0,95.57,134a12.65,12.65,0,0,0,1-3.83,18.37,18.37,0,0,1,.78-3.6,8.16,8.16,0,0,1,1.88-2.83,9.24,9.24,0,0,1,5.53-2.5,9.14,9.14,0,0,1,5,1,11,11,0,0,1,3.08,2.34,14.53,14.53,0,0,1,1.9,2.73s0-.07-.07-.21a5.57,5.57,0,0,0-.28-.58A10.37,10.37,0,0,0,113,124.5a11.18,11.18,0,0,0-3.1-2.45,9.3,9.3,0,0,0-5.09-1.13A9.5,9.5,0,0,0,99,123.47a8.46,8.46,0,0,0-2,3,18.62,18.62,0,0,0-.82,3.67,12.35,12.35,0,0,1-1,3.7,7.32,7.32,0,0,1-2.66,2.87,8.25,8.25,0,0,1-3.92,1.13A8.41,8.41,0,0,0,84.32,139,3.27,3.27,0,0,0,83,140.86a4.88,4.88,0,0,0,0,2.25,22.94,22.94,0,0,1,.9,4.08,3.09,3.09,0,0,1-.46,1.83,3.32,3.32,0,0,1-1.51,1.11c-.59.25-1.23.42-1.85.68A3.9,3.9,0,0,0,78.43,152a4.43,4.43,0,0,0-.48,3.76,12.16,12.16,0,0,0,1.6,3.18A12,12,0,0,1,81,161.8a7.55,7.55,0,0,1,.28,2.92,7.36,7.36,0,0,1-2.14,4.52,7.55,7.55,0,0,1-3.34,1.88A8.37,8.37,0,0,1,72.52,171.31Z" style="fill:#455a64"></path><path d="M61.86,157.54a1.7,1.7,0,0,0-.26.65,2.88,2.88,0,0,0,.34,2,3.13,3.13,0,0,0,1,1.07,3.19,3.19,0,0,0,1.71.46,4,4,0,0,0,3.5-2.23,5.31,5.31,0,0,0,.57-2.43,7.44,7.44,0,0,0-.56-2.64c-.63-1.73-1.79-3.42-1.81-5.44a3.71,3.71,0,0,1,.93-2.75,4,4,0,0,1,2.9-.9,9.9,9.9,0,0,0,3.46-.36,3,3,0,0,0,1.42-1.2,4.32,4.32,0,0,0,.59-1.76,13.83,13.83,0,0,0-.29-3.56,7.57,7.57,0,0,1,.19-3.29,8.28,8.28,0,0,1,3.71-4.88A11.77,11.77,0,0,1,84.83,129a16.17,16.17,0,0,0,5.06-.8A10.61,10.61,0,0,0,93.47,126a10.48,10.48,0,0,0,2-2.52,7.41,7.41,0,0,0,.95-2.53,15.26,15.26,0,0,1-1.11,2.44,10.75,10.75,0,0,1-5.5,4.56,16.48,16.48,0,0,1-5,.72,12,12,0,0,0-5.74,1.28A8.68,8.68,0,0,0,75.13,135a8.11,8.11,0,0,0-.21,3.47,14.42,14.42,0,0,1,.29,3.44,3,3,0,0,1-1.73,2.59,9.41,9.41,0,0,1-3.29.33,4.43,4.43,0,0,0-3.21,1,4.09,4.09,0,0,0-1,3.07,7.92,7.92,0,0,0,.73,3c.39.9.82,1.74,1.15,2.58a7.21,7.21,0,0,1,.56,2.51,5.05,5.05,0,0,1-.5,2.28,3.71,3.71,0,0,1-3.21,2.12,3,3,0,0,1-1.59-.39,2.78,2.78,0,0,1-1-1,2.82,2.82,0,0,1-.41-1.87C61.76,157.77,61.89,157.55,61.86,157.54Z" style="fill:#263238"></path><path d="M146.09,162.31a3.15,3.15,0,0,1,0,2.09,2.73,2.73,0,0,1-1.66,1.69,2.89,2.89,0,0,1-2.93-.8,2.66,2.66,0,0,1-.69-1.68,5.59,5.59,0,0,1,.31-2c.42-1.35,1.29-2.82,1.16-4.59a6.47,6.47,0,0,0-2.44-4.62,7.42,7.42,0,0,0-2.49-1.31,11.33,11.33,0,0,0-2.84-.41,14.52,14.52,0,0,1-2.77-.29,3.68,3.68,0,0,1-2.15-1.33,4.48,4.48,0,0,1-.77-2.37,9.17,9.17,0,0,1,.2-2.46,18.55,18.55,0,0,0,.72-4.68,7.09,7.09,0,0,0-1.43-3.88,9.08,9.08,0,0,0-2.6-2.2,18.43,18.43,0,0,1-2.09-1.44,5.24,5.24,0,0,1-1.3-1.68s0,0,0,.14a2,2,0,0,0,.16.39,4.32,4.32,0,0,0,1,1.28,16.15,16.15,0,0,0,2.07,1.53,9,9,0,0,1,2.48,2.18,6.7,6.7,0,0,1,1.3,3.7,18.67,18.67,0,0,1-.75,4.57,9.55,9.55,0,0,0-.23,2.58,5,5,0,0,0,.86,2.61,4.12,4.12,0,0,0,2.4,1.51,15.25,15.25,0,0,0,2.85.31,11.12,11.12,0,0,1,2.74.38,7.28,7.28,0,0,1,2.34,1.23,6.06,6.06,0,0,1,2.29,4.29c.14,1.61-.66,3-1.1,4.45a6,6,0,0,0-.3,2.16,3,3,0,0,0,.81,1.87,3.17,3.17,0,0,0,3.26.83,2.92,2.92,0,0,0,1.74-1.88,2.88,2.88,0,0,0,.08-1.62A1.69,1.69,0,0,0,146.09,162.31Z" style="fill:#263238"></path><path d="M136.53,240.64V229.58c1.24-6.21.65-13.57-2.24-19.24a103.56,103.56,0,0,0-6.94-10.55l-11-14.29c-6.06,4.41-15.55,1.22-23.69-1.74,0,0-8,4.45-11.78,8.63-3.93,4.4,9.51,59.45,9.51,59.45-6.09,12.18-13.95,23-15.14,34.1l63.6,2.45-2.7-29.16Z" style="fill:#455a64"></path><path d="M135.65,259.54a5.61,5.61,0,0,1-.05-1.25c0-.91,0-2,0-3.39.05-3,.11-6.87.18-11.18s.2-8.32.34-11.18c.07-1.43.14-2.59.2-3.39a5.52,5.52,0,0,1,.16-1.23,6.35,6.35,0,0,1,0,1.24c0,.91,0,2,0,3.39-.05,3-.12,6.87-.19,11.18s-.19,8.32-.33,11.18c-.07,1.43-.14,2.59-.21,3.39A5.28,5.28,0,0,1,135.65,259.54Z" style="fill:#263238"></path><path d="M164.7,269.6s6.2.34,10,2.74,10,6.14,12.55,10.77c1.17,2.13-2.16,2.58-3.81,1.35s-4.16-3.57-5.41-3.85l-1.25-.29a83.39,83.39,0,0,0,3.81,7.56c1.29,2,2.41,5.32-1.47,5.47,0,0-2.61,3.4-5.25.88,0,0-2.06,3.09-5.38-1.19,0,0-1.94,2.45-2.74,1.51s-3.45-2.42-4.22-5.48a110.89,110.89,0,0,0-4-10.49Z" style="fill:#ffbf9d"></path><path d="M303.51,183.66c.69,0,29.08-3,29.08-3s2.41-11.54,2.28-14.54-2.15-22.85-2.15-22.85l10.63-5s14.21,47.92,11.11,51.9-8.93,7.55-9.43,7.57-27.51,12-46.3,5.77S303.51,183.66,303.51,183.66Z" style="fill:#ffbf9d"></path><path d="M278.63,209.53c4.18,4.15,11.38,7.6,23.4,4.6,23.76-5.94,41.57-11,48.65-14.8s4.32-20.78,4.92-21.55c1.79-2.32-.18-7.3-2.73-8.08-7.27-2.2-19.92-1.33-20.56-.67-3.73,3.92-.33,8.68-.33,8.68l-31.33,4.11a52.44,52.44,0,0,0-11.51.73" style="fill:#455a64"></path><path d="M289.14,182.55l.75-.16c.5-.09,1.24-.22,2.22-.34a51.51,51.51,0,0,1,8.55-.36h0l31.32-4.2-.15.35a8.39,8.39,0,0,1-1.44-5.15,6,6,0,0,1,.9-2.66,8.51,8.51,0,0,1,.86-1.14,1.62,1.62,0,0,1,.41-.22l.36-.09c.24-.06.47-.08.7-.13a62.11,62.11,0,0,1,11.69-.24,40.19,40.19,0,0,1,6.08.84c.5.11,1,.26,1.52.39a3.76,3.76,0,0,1,1.43.84,7,7,0,0,1,1.77,2.72,6.87,6.87,0,0,1,.41,3.25,4,4,0,0,1-.63,1.6c-.09.1-.08.37-.09.63v.8c.07,2.15.17,4.34.11,6.54A27.8,27.8,0,0,1,354.4,195a9.09,9.09,0,0,1-2.6,3.83,8.93,8.93,0,0,1-2,1.18c-.66.35-1.36.62-2,.94-2.74,1.17-5.49,2.13-8.2,3s-5.37,1.71-8,2.48c-10.46,3-20,5.43-27.94,7.42a53.77,53.77,0,0,1-5.76,1.19,30.9,30.9,0,0,1-5.25.28,21.89,21.89,0,0,1-8.19-1.78,18.85,18.85,0,0,1-4.5-2.8,11.72,11.72,0,0,1-1.34-1.27s.46.44,1.41,1.19a19.59,19.59,0,0,0,4.52,2.7,22.11,22.11,0,0,0,8.11,1.67,30.42,30.42,0,0,0,5.19-.32,54.54,54.54,0,0,0,5.72-1.22c8-2,17.46-4.46,27.89-7.52,2.61-.77,5.27-1.59,8-2.49s5.44-1.85,8.15-3c.66-.31,1.35-.58,2-.93a8.75,8.75,0,0,0,1.87-1.12,8.51,8.51,0,0,0,2.45-3.61,27.55,27.55,0,0,0,1.45-9.05c.06-2.19,0-4.36-.11-6.52v-.82c0-.14,0-.28,0-.43a1.2,1.2,0,0,1,0-.24,1.42,1.42,0,0,1,.08-.18l.05-.08a3.29,3.29,0,0,0,.54-1.37,6.26,6.26,0,0,0-.39-3,6.48,6.48,0,0,0-1.62-2.52,3.28,3.28,0,0,0-1.24-.73c-.5-.13-1-.27-1.49-.39a39.88,39.88,0,0,0-6-.83,60.8,60.8,0,0,0-11.57.22c-.23,0-.46.06-.68.12l-.32.07a1.24,1.24,0,0,0-.2.1,7.44,7.44,0,0,0-.81,1.06,5.36,5.36,0,0,0-.84,2.45,8,8,0,0,0,1.34,4.85l.2.31-.35,0-31.34,4h0a54,54,0,0,0-8.51.24c-1,.1-1.73.21-2.23.28S289.14,182.55,289.14,182.55Z" style="fill:#263238"></path><path d="M310.76-10.51H337a0,0,0,0,1,0,0V265.73a12,12,0,0,1-12,12h-2.25a12,12,0,0,1-12-12V-10.51a0,0,0,0,1,0,0Z" transform="translate(364.63 481.54) rotate(-119.1)" style="fill:#407BFF"></path><path d="M368.61,51.48h60.77a2.24,2.24,0,0,1,2.24,2.24V69.24a2.24,2.24,0,0,1-2.24,2.24H368.61a0,0,0,0,1,0,0v-20A0,0,0,0,1,368.61,51.48Z" transform="translate(541 440.98) rotate(-119.1)" style="fill:#407BFF"></path><rect x="342.68" y="73.63" width="50.77" height="20" rx="3.24" transform="translate(474.01 445.9) rotate(-119.1)" style="fill:#407BFF"></rect><rect x="374.11" y="55.78" width="27.42" height="31.06" transform="translate(514.13 444.85) rotate(-119.1)" style="fill:#407BFF"></rect><path d="M429.39,59.86c.07.12-47.3,26.62-105.78,59.18s-106,58.86-106,58.73,47.29-26.62,105.79-59.19S429.32,59.73,429.39,59.86Z" style="fill:#263238"></path><path d="M106.56,259.41c17.8,32,55.33,45,83.83,29.15s37.2-54.65,19.4-86.61-55.32-45-83.83-29.15S88.77,227.45,106.56,259.41Zm87.79-48.86c12.47,22.4,6.38,49.57-13.6,60.68s-46.27,2-58.74-20.42-6.38-49.57,13.59-60.69S181.88,188.15,194.35,210.55Z" style="fill:#407BFF"></path><rect x="224.93" y="170.53" width="40.12" height="14.26" rx="6.52" transform="translate(208.91 478.13) rotate(-119.1)" style="fill:#407BFF"></rect><rect x="250.23" y="156.45" width="40.12" height="14.26" rx="6.52" transform="translate(258.81 479.31) rotate(-119.1)" style="fill:#407BFF"></rect><path d="M244.36,162c.13-.07,3.18,5.3,6.83,12s6.5,12.16,6.37,12.23-3.18-5.29-6.83-12S244.23,162,244.36,162Z" style="fill:#263238"></path><path d="M232.75,170.25c.13-.07,3.11,5.06,6.67,11.44s6.33,11.63,6.21,11.7S242.52,188.33,239,182,232.63,170.32,232.75,170.25Z" style="fill:#263238"></path><path d="M269.81,148.07c.13-.07,3.24,5.27,6.95,11.93s6.61,12.13,6.48,12.2-3.23-5.28-6.94-11.94S269.69,148.14,269.81,148.07Z" style="fill:#263238"></path><path d="M257.6,155.44c.12-.07,3.17,5.24,6.79,11.86s6.47,12,6.34,12.11-3.16-5.24-6.79-11.86S257.47,155.51,257.6,155.44Z" style="fill:#263238"></path><path d="M330.13,119.37a4.72,4.72,0,0,0,2-9.18,4.92,4.92,0,0,0-4.27-8.3A5.89,5.89,0,0,0,319,97.05a6.62,6.62,0,0,0-8.15-.18,4.71,4.71,0,0,0-4.17,8" style="fill:#263238"></path><path d="M309.84,101.53h1A20.06,20.06,0,0,1,330.82,120c.75,9.69,1.45,20.4,1.37,25.6C332,156.4,321.26,158,321.26,158l.87,12.94L296,170.09l-2.17-46.9C292.91,112,298.64,102.15,309.84,101.53Z" style="fill:#ffbf9d"></path><path d="M321.35,158a26.13,26.13,0,0,1-14.09-4.17s3.46,8.15,14.2,7.21Z" style="fill:#ff9a6c"></path><path d="M324.91,130.15a1.53,1.53,0,0,1-1.49,1.54,1.48,1.48,0,0,1-1.58-1.39,1.55,1.55,0,0,1,1.49-1.55A1.48,1.48,0,0,1,324.91,130.15Z" style="fill:#263238"></path><path d="M328.49,125.29c-.19.2-1.36-.66-3-.66s-2.87.82-3.05.62.11-.45.64-.84a4.21,4.21,0,0,1,2.44-.74,4,4,0,0,1,2.39.78C328.41,124.84,328.58,125.21,328.49,125.29Z" style="fill:#263238"></path><path d="M310,129.43A1.54,1.54,0,0,1,308.5,131a1.48,1.48,0,0,1-1.58-1.39,1.54,1.54,0,0,1,1.49-1.55A1.48,1.48,0,0,1,310,129.43Z" style="fill:#263238"></path><path d="M312.23,125.55c-.19.2-1.36-.66-3-.66s-2.87.82-3.05.62.11-.45.64-.84a4.21,4.21,0,0,1,2.44-.74,4,4,0,0,1,2.39.78C312.15,125.1,312.32,125.46,312.23,125.55Z" style="fill:#263238"></path><path d="M318.19,137.84a10.7,10.7,0,0,1,2.69-.48c.42,0,.82-.12.9-.41a2.16,2.16,0,0,0-.28-1.25l-1.24-3.22c-1.72-4.59-3-8.36-2.78-8.42s1.73,3.59,3.45,8.17c.41,1.13.81,2.21,1.19,3.24a2.49,2.49,0,0,1,.21,1.66,1.06,1.06,0,0,1-.7.61,2.42,2.42,0,0,1-.71.1A11,11,0,0,1,318.19,137.84Z" style="fill:#263238"></path><path d="M313.68,119.19c-.22.42-1.63,0-3.38-.1s-3.21.23-3.37-.21c-.07-.21.24-.58.87-.92a5.29,5.29,0,0,1,2.62-.54,5.08,5.08,0,0,1,2.53.78C313.52,118.59,313.78,119,313.68,119.19Z" style="fill:#263238"></path><path d="M328.59,118.48c-.35.37-1.72,0-3.36,0s-3,.25-3.35-.15c-.14-.19.08-.57.69-.92a5.38,5.38,0,0,1,2.73-.61,5.26,5.26,0,0,1,2.67.77C328.55,117.91,328.74,118.29,328.59,118.48Z" style="fill:#263238"></path><path d="M329.8,115.1s-2.82-6.75-6.07-8.33c-3.93-1.92-5.63,2.39-9.38,1.33s-7.5-2.89-11.34,0c-4.2,3.16-2.24,5.39-2.52,10.17-1.1,19.36-4.66,24.82-5.63,15.7-.11-1-2.88-1.8-3.28-6-.52-5.47-.71-12.12.53-16,1-3.27,2.91-5.53,6.26-8,5.3-3.92,12.56-4,17.49-3.47S330.27,106.66,329.8,115.1Z" style="fill:#263238"></path><path d="M295.54,133.67a2.92,2.92,0,0,0-3.14-2.83c-2,.19-4.25,1.32-4.13,5.47.21,7.36,7.56,5.63,7.57,5.41S295.66,136.75,295.54,133.67Z" style="fill:#ffbf9d"></path><path d="M294.15,139s-.12.1-.34.2a1.29,1.29,0,0,1-.95.05,3.16,3.16,0,0,1-1.55-2.81,4.22,4.22,0,0,1,.3-1.84,1.47,1.47,0,0,1,.94-1,.65.65,0,0,1,.77.33c.1.2.06.35.1.36s.15-.13.08-.43a.74.74,0,0,0-.3-.45.94.94,0,0,0-.71-.17,1.8,1.8,0,0,0-1.31,1.18,4.32,4.32,0,0,0-.39,2.06c.09,1.48.89,2.85,2,3.13a1.35,1.35,0,0,0,1.16-.23C294.15,139.18,294.18,139,294.15,139Z" style="fill:#ff9a6c"></path><path d="M295.73,119.41a7,7,0,0,0,3.11,1.45,2.4,2.4,0,0,0,2.67-1.68c.09-.51,0-1.11.3-1.5s1.15-.32,1.76-.25c2.14.23,4.65-2.13,5.2-4.21a1.91,1.91,0,0,0,2.56.54,6.84,6.84,0,0,0,1.78-1.57,3.05,3.05,0,0,1,2.53-1.25,7,7,0,0,0,1.6.35c1-.08,1.44-1.21,1.59-2.17s.27-2.07,1.09-2.59a3.87,3.87,0,0,1,2.63-.07c.89.14,2-.07,2.27-.94a1.76,1.76,0,0,0-.33-1.33,4.76,4.76,0,0,0-5.62-1.82A6.45,6.45,0,0,0,307,101.08a6.55,6.55,0,0,0-10.49,2.36,4.75,4.75,0,0,0-5.38,6.89,4.51,4.51,0,0,0-2.49,3.59c0,1.52,1.45,3,2.92,2.64a2.63,2.63,0,0,0,4.54,2.64" style="fill:#263238"></path><path d="M319.41,104.53s0,0,0,.14,0,.22-.05.39a4.79,4.79,0,0,1-.54,1.42,5.33,5.33,0,0,1-1.63,1.73,4.92,4.92,0,0,1-3,.85l.12-.16a2.63,2.63,0,0,1-.15,2,7.59,7.59,0,0,1-1.26,1.8,5.52,5.52,0,0,1-.83.85,2.75,2.75,0,0,1-3.53-.43l.27-.08a5.51,5.51,0,0,1-2.35,3.81,4,4,0,0,1-2.42.79,7.44,7.44,0,0,1-2.38-.53l.2-.09a5.83,5.83,0,0,1-1.75,2.27,3.08,3.08,0,0,1-2.56.69,4.06,4.06,0,0,1-3.12-3.18l.17.08a3.87,3.87,0,0,1-2.53.36,4.17,4.17,0,0,1-1.76-.79,3.67,3.67,0,0,1-.82-.9,1.32,1.32,0,0,1-.18-.39,4.32,4.32,0,0,0,1.07,1.19,4,4,0,0,0,1.72.71,3.58,3.58,0,0,0,2.39-.38l.14-.08,0,.16a3.8,3.8,0,0,0,2.94,2.94,2.81,2.81,0,0,0,2.33-.65,5.52,5.52,0,0,0,1.64-2.15l.06-.13.14,0a7.05,7.05,0,0,0,2.27.5,3.71,3.71,0,0,0,2.24-.73,5.23,5.23,0,0,0,2.22-3.59l0-.35.23.27a2.38,2.38,0,0,0,2.09.76,2.34,2.34,0,0,0,1-.38,4.87,4.87,0,0,0,.78-.79,7.33,7.33,0,0,0,1.24-1.72,2.39,2.39,0,0,0,.16-1.84l-.06-.18.19,0a4.72,4.72,0,0,0,2.89-.77,5.24,5.24,0,0,0,1.62-1.65A5.52,5.52,0,0,0,319.41,104.53Z" style="fill:#455a64"></path><path d="M318.17,143.33c-.06-.27-1.85.17-3.51-1.05s-1.93-3.18-2.18-3.13-.25.52-.07,1.33a4.59,4.59,0,0,0,1.73,2.64,4,4,0,0,0,2.9.76C317.81,143.76,318.21,143.45,318.17,143.33Z" style="fill:#263238"></path><path d="M373.63,423.12l7.1,24.19s27,.9,28.73,5.25L363,468l-12.62-37.25Z" style="fill:#455a64"></path><path d="M365.71,450.08a2,2,0,0,0-.59,2.6,1.92,1.92,0,0,0,2.57.61,2.11,2.11,0,0,0,.61-2.76,2,2,0,0,0-2.75-.34" style="fill:#e0e0e0"></path><path d="M406.84,450.81s2.37.21,2.62,1.75L363,468l-1.12-3.81,44.92-13.4" style="fill:#263238"></path><path d="M381.4,446.82c.07.23-1,.71-1.9,1.81s-1.15,2.25-1.39,2.23-.33-1.44.75-2.75S381.38,446.6,381.4,446.82Z" style="fill:#fff"></path><path d="M386.94,447.21c.13.21-.72.92-1.18,2.13s-.33,2.31-.56,2.37-.8-1.17-.21-2.67S386.87,447,386.94,447.21Z" style="fill:#fff"></path><path d="M391.65,452.12c-.19.12-.88-.91-.71-2.34s1.06-2.29,1.22-2.13-.28,1-.4,2.22S391.87,452,391.65,452.12Z" style="fill:#fff"></path><path d="M379.17,441.49c0,.24-1.17.27-2.42.78s-2.12,1.25-2.3,1.1.51-1.28,2-1.87S379.23,441.27,379.17,441.49Z" style="fill:#fff"></path><path d="M265.29,423.33l-10.11,23.1s20.09,18,18.64,22.48l-45.5-18,14.27-36.64Z" style="fill:#455a64"></path><path d="M241.89,438.9a2,2,0,0,0-2.12,1.61,1.93,1.93,0,0,0,1.58,2.12,2.12,2.12,0,0,0,2.24-1.72c0-1-.91-2.14-1.89-2" style="fill:#e0e0e0"></path><path d="M272.93,465.89s1.68,1.69.89,3l-45.5-18,1.59-3.63,43,18.6" style="fill:#263238"></path><path d="M256,446.49c-.09.22-1.24-.12-2.62.16s-2.33,1-2.5.82.67-1.32,2.34-1.63S256.14,446.3,256,446.49Z" style="fill:#fff"></path><path d="M260,450.35c0,.23-1.14.23-2.27.87s-1.73,1.55-2,1.46.14-1.41,1.55-2.18S260.08,450.14,260,450.35Z" style="fill:#fff"></path><path d="M260.46,457.13c-.22,0-.09-1.26,1-2.25s2.28-1.07,2.3-.85-.88.62-1.73,1.45S260.69,457.2,260.46,457.13Z" style="fill:#fff"></path><path d="M257.73,441c-.17.16-1.07-.54-2.36-1s-2.42-.4-2.46-.63,1.21-.66,2.72-.16S257.91,440.84,257.73,441Z" style="fill:#fff"></path><path d="M282.32,296.43l-15.94,64.66s-28.75,48.4-33.62,72.62l26.3,10.34s19.13-46.65,24.74-55.21a68.93,68.93,0,0,1,8.66-10.67,16.65,16.65,0,0,0,4.37-7.56l12.07-46.13Z" style="fill:#263238"></path><path d="M275.53,286.09s2.22,17.32,18.89,25l35.12,57.2s2.75,18.6,8,34.27,15.86,45.87,15.86,45.87l28.89-10.8-18.41-62.94-3-21.83-28.66-73-24.62-14.76Z" style="fill:#263238"></path><path d="M275.53,286.09l.53-.36,1.59-1.06,6.24-4.12L307.55,265l.08-.05.08.05,24.64,14.73,0,0,0,.06,28.72,72.93v.05c.95,6.9,2,14.29,3,21.83v0c5,17,10.3,35.19,15.78,53.93q1.33,4.53,2.64,9l.07.23-.23.08-28.89,10.8-.25.09-.08-.25c-5-14.51-9.84-28.48-14.41-41.73-1.15-3.31-2.28-6.59-3.22-9.87s-1.79-6.54-2.56-9.76c-1.52-6.44-2.74-12.73-3.7-18.83l0,.08L294.3,311.15l.06.05a32.61,32.61,0,0,1-11-8.38,34.65,34.65,0,0,1-5.4-8.66,35.63,35.63,0,0,1-2-6c-.17-.68-.27-1.21-.33-1.57s-.07-.54-.07-.54,0,.18.11.53.17.88.36,1.57a36.6,36.6,0,0,0,2.06,5.92,34.89,34.89,0,0,0,5.42,8.57,32.65,32.65,0,0,0,11,8.28l0,0,0,0,35.19,57.16,0,0v.05c1,6.08,2.2,12.36,3.72,18.79.77,3.21,1.61,6.46,2.56,9.73s2.07,6.53,3.22,9.84c4.59,13.25,9.42,27.22,14.44,41.72l-.33-.15,28.89-10.8-.16.31q-1.3-4.47-2.64-9l-15.76-53.94v0c-1-7.54-2.06-14.93-3-21.83l0,.06-28.61-73,.08.09-24.6-14.79h.15L284,280.64l-6.3,4.06-1.62,1.05Z" style="fill:#455a64"></path><path d="M291,162.52s-8.42,6.48-12.51,13.72c-4.9,8.67-5.43,21.52-5.58,41.48-.15,18.46,2.61,23.59,1.55,30.55-2.09,13.59-3.64,59.2-3.64,59.2s27-10.37,32.24-15l5.27-4.58,33.79,11.17-6.82-41.52-4.68-51.75-6-27.45-1-10.77L294.6,155.91Z" style="fill:#455a64"></path><path d="M322.53,167c.35.07-.83,2.44-2.91,5.92l-.09.14-.16-.06c-2.93-1.14-6.81-2.57-11.05-4.12-4.78-1.74-9.1-3.36-12.19-4.62-1.55-.63-2.79-1.16-3.64-1.55a8.21,8.21,0,0,1-1.3-.64,7.12,7.12,0,0,1,1.38.46l3.69,1.39,12.24,4.47c4.24,1.55,8.11,3,11,4.24l-.24.08C321.44,169.3,322.73,167.05,322.53,167Z" style="fill:#263238"></path><path d="M357.45,145.44s-2.14-3.33-4.16-6.4-5.08-4.58-5.57-6.18-3.18-8.73-3.61-10.5a22.79,22.79,0,0,1-.52-5.22s2.21-.94,3.27,2.22c.64,1.9,2.68,8.35,3.12,8.67s1-.15,1-.15a75.77,75.77,0,0,1-2.35-7.37c-.1-1.17.31-8.93.31-8.93a2.34,2.34,0,0,1,2.66,1.49c1.05,2,1.09,7,1.09,7l1.59,5.58-.56-5.52.8-10.15a3.82,3.82,0,0,1,3.2,3c.67,2.74-.22,6.56.23,7.37s.94,5.71.94,5.71.55-11.9,1.82-12.24,2.31.92,2.13,3.32-.23,7.48.43,9.72,7.43,11,6.88,14.84a64.45,64.45,0,0,0-.63,7H357.92Z" style="fill:#ffbf9d"></path><path d="M316.76,175.41c.65.25,28.36,7.11,28.36,7.11s6.19-10,7.1-12.9S358,147.4,358,147.4l11.71-1.1s-3,49.89-7.24,52.58-11,4.05-11.44,3.9-29.95,1.9-45.5-10.35S316.76,175.41,316.76,175.41Z" style="fill:#ffbf9d"></path><g style="opacity:0.30000000000000004"><path d="M296.9,201.82a21.16,21.16,0,0,0,11.33,6.66c7.35,1.62,23,4.49,23,4.49l-.76-7.68-34-3.64"></path></g><path d="M284.56,191.26c2.52,5.32,8.12,11,20.43,12.29,24.37,2.52,42.82,3.86,50.79,2.66s11.14-18.07,12-18.59c2.48-1.56,2.32-6.92.18-8.52-6.08-4.55-18.27-8-19.09-7.63-4.85,2.41-3.27,8.05-3.27,8.05L314.7,172.7a52,52,0,0,0-11.07-3.22" style="fill:#455a64"></path><path d="M303.63,169.48s.26,0,.76.1,1.25.22,2.21.43a51.51,51.51,0,0,1,8.16,2.58h0l30.88,6.72-.26.28a8.31,8.31,0,0,1,.4-5.33,5.91,5.91,0,0,1,1.74-2.2,8.06,8.06,0,0,1,1.21-.78,1.69,1.69,0,0,1,.45-.07l.37,0c.25,0,.47.08.71.12a62,62,0,0,1,11.07,3.75,41.53,41.53,0,0,1,5.43,2.86c.43.28.86.59,1.29.89a3.7,3.7,0,0,1,1.06,1.27,7.09,7.09,0,0,1,.74,3.16,6.78,6.78,0,0,1-.72,3.2,3.8,3.8,0,0,1-1.14,1.29c-.12.06-.2.32-.3.56l-.26.75c-.66,2-1.32,4.14-2.12,6.2a28.11,28.11,0,0,1-4.54,8.16,8,8,0,0,1-6,3.14c-.75.11-1.5.13-2.24.19-3,.18-5.88.14-8.73.06s-5.64-.23-8.35-.4c-10.87-.7-20.62-1.69-28.8-2.54a52.53,52.53,0,0,1-5.82-.84,31,31,0,0,1-5-1.52,22.06,22.06,0,0,1-7.09-4.46,18.9,18.9,0,0,1-3.28-4.17,11.81,11.81,0,0,1-.83-1.65s.28.57.92,1.6a19.79,19.79,0,0,0,3.33,4.07,21.84,21.84,0,0,0,7.06,4.34,31.72,31.72,0,0,0,5,1.47,54.19,54.19,0,0,0,5.8.79c8.18.81,17.93,1.76,28.78,2.44,2.72.16,5.5.3,8.34.37s5.75.11,8.69-.06c.73-.07,1.48-.09,2.21-.2a8,8,0,0,0,2.14-.41,8.56,8.56,0,0,0,3.54-2.56,27.55,27.55,0,0,0,4.44-8c.8-2,1.45-4.11,2.11-6.17l.28-.78c0-.12.1-.25.16-.39a1.38,1.38,0,0,1,.13-.22.8.8,0,0,1,.13-.13l.07-.06a3.25,3.25,0,0,0,1-1.11,6.22,6.22,0,0,0,.66-3,6.62,6.62,0,0,0-.67-2.92,3.26,3.26,0,0,0-.91-1.1c-.43-.29-.84-.6-1.27-.87a39.84,39.84,0,0,0-5.36-2.83,61.38,61.38,0,0,0-10.95-3.74c-.23,0-.46-.1-.68-.12l-.33,0h-.22a7.69,7.69,0,0,0-1.12.73,5.41,5.41,0,0,0-1.63,2,8,8,0,0,0-.39,5l.09.35-.35-.08-30.83-6.9h0a54.65,54.65,0,0,0-8.08-2.68c-1-.23-1.69-.39-2.19-.49S303.63,169.48,303.63,169.48Z" style="fill:#263238"></path><path d="M355.78,189.17a6.55,6.55,0,0,1-2-.87,19.76,19.76,0,0,1-4.2-3.14,21,21,0,0,1-3.28-4.1,7.24,7.24,0,0,1-.95-2,44.3,44.3,0,0,0,4.59,5.69A40.94,40.94,0,0,0,355.78,189.17Z" style="fill:#263238"></path><path d="M138.22,271.53s6.2.33,10,2.74,10,6.13,12.55,10.77c1.17,2.13-2.16,2.58-3.8,1.34s-4.17-3.56-5.42-3.85l-1.25-.28a82.26,82.26,0,0,0,3.81,7.55c1.29,2,2.41,5.32-1.46,5.48,0,0-2.62,3.4-5.26.88,0,0-2.06,3.08-5.38-1.19,0,0-1.93,2.44-2.74,1.51s-3.45-2.42-4.22-5.48a107.06,107.06,0,0,0-4-10.49Z" style="fill:#ffbf9d"></path><path d="M85.46,190a14.92,14.92,0,0,0-7.79,5.85c-2.38,3.66-3.11,10-2.43,14.72,1.44,9.95,6,26.74,8.57,37.52.88,3.72,2.69,10.38,8,13.91l37.89,22.72,10.13-15-34.54-28.15-6.83-38.58Z" style="fill:#455a64"></path><path d="M78.91,227.92a2.21,2.21,0,0,1,.12.39l.32,1.17c.27,1.06.65,2.58,1.15,4.53,1,4,2.42,9.68,4.19,16.75a19.61,19.61,0,0,0,6.24,9.88,37.53,37.53,0,0,0,5.54,3.68l6.09,3.68,27.29,16.48-.35.08,3.65-5.41,6.48-9.63.05.35-34.23-28.19-.06,0v-.07c-2.26-9.51-3.9-17.3-4.94-22.72-.51-2.71-.87-4.82-1.1-6.26-.1-.7-.18-1.25-.24-1.64s-.07-.56-.07-.56a4.71,4.71,0,0,1,.13.55c.07.39.17.93.29,1.63.27,1.43.66,3.54,1.22,6.24,1.09,5.4,2.79,13.17,5.1,22.67l-.07-.11L140,269.47l.18.15-.13.19-6.48,9.63-3.65,5.41-.13.2-.22-.12L102.32,268.4l-6.08-3.69A38.28,38.28,0,0,1,90.66,261a19.87,19.87,0,0,1-6.31-10.11c-1.71-7.09-3.08-12.82-4-16.79-.45-2-.81-3.49-1.06-4.55L79,228.32A2.92,2.92,0,0,1,78.91,227.92Z" style="fill:#263238"></path><path d="M79.53,195.33a2.39,2.39,0,0,1,.77-.33,14.59,14.59,0,0,1,2.22-.5,13.15,13.15,0,0,1,7.39,1,14.74,14.74,0,0,1,5.52,5,9,9,0,0,1,1,2.05,2.36,2.36,0,0,1,.18.81,21.06,21.06,0,0,0-1.49-2.65A15.67,15.67,0,0,0,89.68,196a13.81,13.81,0,0,0-7.12-1.1C80.69,195.05,79.56,195.42,79.53,195.33Z" style="fill:#263238"></path></g></svg>